<svg id="Layer_1" enable-background="new 0 0 512 512" viewBox="0 0 512 512" xmlns="http://www.w3.org/2000/svg"><g id="_x33_4_bed_00000145773587266339681140000010158512295443520391_"><g><path d="m512 331.29v180.71h-60.24v-30.12h-30.11v-30.12h-331.3v30.12h-30.11v30.12h-60.24v-180.71h30.12v-30.11h30.12v-30.12h30.11v-30.12h30.12v-30.12h90.35v30.12h30.12v30.12h30.12v-30.12h30.12v-30.12h90.35v30.12h30.12v30.12h30.11v30.12h30.12v30.11z"/><path d="m180.71 120.47h-30.12v-90.35h30.12v-30.12h60.23v30.12h30.12v-30.12h60.23v30.12h30.12v90.35h-30.12v30.12h-30.11v30.12h-30.12v30.11h-30.12v-30.11h-30.12v-30.12h-30.11z"/></g><g><g><g><path d="m331.29 60.24v60.23h-30.11v30.12h-30.12v30.12h-30.12v-30.12h-30.12v-30.12h-30.11v-60.23l10.598-15.06h36.601l13.031 15.06 14.319 13.547 15.801-13.547 13.157-15.06h33.786z" fill="#ff6379"/></g></g><g fill="#ffe8cb"><path d="m301.18 240.94h90.35v30.12h-90.35z"/><path d="m120.47 240.94h90.35v30.12h-90.35z"/></g><g fill="#4a9f46"><path d="m481.88 451.76v30.12h-30.12v-30.12l15.06-15.055z"/><path d="m60.24 451.76v30.12h-30.12v-30.12l15.06-15.055z"/></g><g><g><path d="m481.88 391.53v30.12l-15.06 15.055h-30.298l-14.872-15.055h-331.3l-13.583 15.055h-31.587l-15.06-15.055v-30.12l15.06-15.06h421.64z" fill="#6fbe6b"/></g></g><path d="m436.522 316.076-8.458 22.749-19.247 7.023h-301.036l-26.611-4.337-4.403-25.276 13.583-15.055h331.3z" fill="#ffe8cb"/></g><g><g fill="#ffa6b2"><path d="m271.06 30.12h60.23v30.12h-60.23z"/><path d="m180.71 30.12h60.23v30.12h-60.23z"/><path d="m240.94 60.24h30.12v30.11h-30.12z"/></g><g><path d="m481.88 331.29v30.12l-15.06 15.06h-421.64l-15.06-14.81v-30.37h30.12v-30.11h30.11v30.11h331.3v-30.11h30.11v30.11z" fill="#ecc372"/></g><g fill="#306c15"><path d="m30.12 421.65h60.23v30.11h-60.23z"/><path d="m30.12 361.41h451.76v30.12h-451.76z"/><path d="m421.65 421.65h60.23v30.11h-60.23z"/></g></g></g><g/><g/><g/><g/><g/><g/><g/><g/><g/><g/><g/><g/><g/><g/><g/></svg>