<svg id="Layer_1" enable-background="new 0 0 512 512" viewBox="0 0 512 512" xmlns="http://www.w3.org/2000/svg"><g id="_x31_6_cold_shower_00000096766916343710320010000000937483750941282472_"><g><path d="m451.76 271.06v30.12h-30.11v30.11h-271.06v-30.11h-30.12v-30.12h30.12v-60.24h30.12v-30.11h30.11v-30.12h30.12v-60.24h-150.59v421.65h-90.35v-421.65h30.12v-30.11h30.12v-30.12h30.11v-30.12h150.59v30.12h30.12v30.12h30.12v30.11h30.11v60.24h30.12v30.12h30.12v30.11h30.12v60.24z"/><path d="m331.29 421.65h30.12v60.23h-30.12v30.12h-90.35v-30.12h-30.12v-60.23h30.12v-30.12h30.12v-30.12h30.12v30.12h30.11z"/></g><g><g fill="#d1d9e1"><path d="m60.24 60.24h30.11v30.11h-30.11z"/><path d="m30.12 481.88 15.06 15.06 15.06-15.06v-391.53h-30.12z"/><path d="m271.06 90.35v60.24l15.055 15.06 15.065-15.06v-60.24z"/><path d="m240.94 60.24h30.12v30.11h-30.12z"/><path d="m90.35 30.12h150.59v30.12h-150.59z"/></g><path d="m301.18 421.65-15.065-15.06-15.055 15.06-30.12 30.11v30.12h90.35v-30.12z" fill="#3d99e1"/><path d="m391.53 271.06-105.41-15.06-105.41 15.06h-30.12v30.12h271.06v-30.12z" fill="#49a420"/><path d="m286.12 198.851-75.3 11.969-15.055 15.06 15.055 15.06 75.3 15.06 75.29-15.06 15.06-15.06-15.06-15.06z" fill="#8fe26a"/></g><g><g fill="#145382"><path d="m451.76 391.53h30.12v30.12h-30.12v30.11h-30.11v-30.11h-30.12v-30.12h30.12v-30.12h30.11z"/><path d="m512 60.24v30.11h-30.12v30.12h-30.12v30.12h-30.11v-30.12h-30.12v-30.12h-30.12v-30.11h30.12v-30.12h30.12v-30.12h30.11v30.12h30.12v30.12z"/></g><path d="m376.47 225.88-15.06 15.06h-150.59l-15.055-15.06-15.055 15.06v30.12h210.82v-30.12z" fill="#2a5e12"/><g><path d="m301.18 150.59v30.12l-15.065 15.055-15.055-15.055v-30.12z" fill="#5f6c75"/></g><g fill="#ddf6d0"><path d="m210.82 180.71h150.59v30.11h-150.59z"/><path d="m180.71 210.82h30.11v30.12h-30.11z"/><path d="m361.41 210.82h30.12v30.12h-30.12z"/></g><g><path d="m30.12 481.88h30.12v30.12h-30.12z" fill="#a1aab7"/></g><g fill="#b2d7f3"><path d="m240.94 421.65h30.12v30.11h-30.12z"/><path d="m271.06 391.53h30.12v30.12h-30.12z"/><path d="m301.18 421.65h30.11v30.11h-30.11z"/><path d="m421.65 391.53h30.11v30.12h-30.11z"/><path d="m481.88 60.24v30.11h-30.12v30.12h-30.11v-30.12h-30.12v-30.11h30.12v-30.12h30.11v30.12z"/></g><g><path d="m421.65 60.24h30.11v30.11h-30.11z" fill="#3d99e1"/></g><g fill="#145382"><path d="m391.53 481.88h30.12v30.12h-30.12z"/><path d="m120.47 451.76h30.12v30.12h-30.12z"/><path d="m150.59 421.65h30.12v30.11h-30.12z"/></g></g></g><g/><g/><g/><g/><g/><g/><g/><g/><g/><g/><g/><g/><g/><g/><g/></svg>