<svg width="38" height="48" viewBox="0 0 38 48" fill="none" xmlns="http://www.w3.org/2000/svg">
<g clip-path="url(#clip0_1_958)">
<path d="M28.5001 46.4H26.6001V48H28.5001V46.4Z" fill="#201D1E"/>
<path d="M26.5999 46.4H24.7V48H26.5999V46.4Z" fill="#201D1E"/>
<path d="M24.7001 46.4H22.8V48H24.7001V46.4Z" fill="#201D1E"/>
<path d="M22.7999 46.4H20.8999V48H22.7999V46.4Z" fill="#201D1E"/>
<path d="M20.9 46.4H19V48H20.9V46.4Z" fill="#201D1E"/>
<path d="M19.0001 46.4H17.1001V48H19.0001V46.4Z" fill="#201D1E"/>
<path d="M17.1 46.4H15.2V48H17.1V46.4Z" fill="#201D1E"/>
<path d="M15.2001 46.4H13.3V48H15.2001V46.4Z" fill="#201D1E"/>
<path d="M13.2999 46.4H11.3999V48H13.2999V46.4Z" fill="#201D1E"/>
<path d="M11.4 46.4H9.5V48H11.4V46.4Z" fill="#201D1E"/>
<path d="M9.5001 46.4H7.6001V48H9.5001V46.4Z" fill="#201D1E"/>
<path d="M7.59995 46.4H5.69995V48H7.59995V46.4Z" fill="#201D1E"/>
<path d="M5.70005 46.4H3.80005V48H5.70005V46.4Z" fill="#201D1E"/>
<path d="M32.2999 44.8H30.3999V46.4H32.2999V44.8Z" fill="#201D1E"/>
<path d="M30.4 44.8H28.5V46.4H30.4V44.8Z" fill="#201D1E"/>
<path d="M28.5001 44.8H26.6001V46.4H28.5001V44.8Z" fill="#201D1E"/>
<path d="M26.5999 44.8H24.7V46.4H26.5999V44.8Z" fill="#232023"/>
<path d="M24.7001 44.8H22.8V46.4H24.7001V44.8Z" fill="#242226"/>
<path d="M22.7999 44.8H20.8999V46.4H22.7999V44.8Z" fill="#242226"/>
<path d="M20.9 44.8H19V46.4H20.9V44.8Z" fill="#242226"/>
<path d="M19.0001 44.8H17.1001V46.4H19.0001V44.8Z" fill="#242226"/>
<path d="M17.1 44.8H15.2V46.4H17.1V44.8Z" fill="#242226"/>
<path d="M15.2001 44.8H13.3V46.4H15.2001V44.8Z" fill="#242226"/>
<path d="M13.2999 44.8H11.3999V46.4H13.2999V44.8Z" fill="#242226"/>
<path d="M11.4 44.8H9.5V46.4H11.4V44.8Z" fill="#242226"/>
<path d="M9.5001 44.8H7.6001V46.4H9.5001V44.8Z" fill="#242226"/>
<path d="M7.59995 44.8H5.69995V46.4H7.59995V44.8Z" fill="#201D1E"/>
<path d="M5.70005 44.8H3.80005V46.4H5.70005V44.8Z" fill="#201D1E"/>
<path d="M3.7999 44.8H1.8999V46.4H3.7999V44.8Z" fill="#201D1E"/>
<path d="M34.2001 43.2H32.3V44.8H34.2001V43.2Z" fill="#201D1E"/>
<path d="M32.2999 43.2H30.3999V44.8H32.2999V43.2Z" fill="#201D1E"/>
<path d="M30.4 43.2H28.5V44.8H30.4V43.2Z" fill="#1B5D9C"/>
<path d="M28.5001 43.2H26.6001V44.8H28.5001V43.2Z" fill="#1B5D9C"/>
<path d="M26.5999 43.2H24.7V44.8H26.5999V43.2Z" fill="#1B5D9C"/>
<path d="M24.7001 43.2H22.8V44.8H24.7001V43.2Z" fill="#1B5D9C"/>
<path d="M22.7999 43.2H20.8999V44.8H22.7999V43.2Z" fill="#1B5D9C"/>
<path d="M20.9 43.2H19V44.8H20.9V43.2Z" fill="#1B5D9C"/>
<path d="M19.0001 43.2H17.1001V44.8H19.0001V43.2Z" fill="#1B5D9C"/>
<path d="M17.1 43.2H15.2V44.8H17.1V43.2Z" fill="#1B5D9C"/>
<path d="M15.2001 43.2H13.3V44.8H15.2001V43.2Z" fill="#1B5D9C"/>
<path d="M13.2999 43.2H11.3999V44.8H13.2999V43.2Z" fill="#1B5D9C"/>
<path d="M11.4 43.2H9.5V44.8H11.4V43.2Z" fill="#1B5D9C"/>
<path d="M9.5001 43.2H7.6001V44.8H9.5001V43.2Z" fill="#1B5D9C"/>
<path d="M7.59995 43.2H5.69995V44.8H7.59995V43.2Z" fill="#1B5D9C"/>
<path d="M5.70005 43.2H3.80005V44.8H5.70005V43.2Z" fill="#1B5D9C"/>
<path d="M3.7999 43.2H1.8999V44.8H3.7999V43.2Z" fill="#201D1E"/>
<path d="M1.9 43.2H0V44.8H1.9V43.2Z" fill="#201D1E"/>
<path d="M36.0999 41.6H34.2V43.2H36.0999V41.6Z" fill="#201D1E"/>
<path d="M34.2001 41.6H32.3V43.2H34.2001V41.6Z" fill="#201D1E"/>
<path d="M32.2999 41.6H30.3999V43.2H32.2999V41.6Z" fill="#1999D6"/>
<path d="M30.4 41.6H28.5V43.2H30.4V41.6Z" fill="#1999D6"/>
<path d="M28.5001 41.6H26.6001V43.2H28.5001V41.6Z" fill="#1999D6"/>
<path d="M26.5999 41.6H24.7V43.2H26.5999V41.6Z" fill="#1999D6"/>
<path d="M24.7001 41.6H22.8V43.2H24.7001V41.6Z" fill="#1999D6"/>
<path d="M22.7999 41.6H20.8999V43.2H22.7999V41.6Z" fill="#1999D6"/>
<path d="M20.9 41.6H19V43.2H20.9V41.6Z" fill="#1999D6"/>
<path d="M19.0001 41.6H17.1001V43.2H19.0001V41.6Z" fill="#1999D6"/>
<path d="M17.1 41.6H15.2V43.2H17.1V41.6Z" fill="#1999D6"/>
<path d="M15.2001 41.6H13.3V43.2H15.2001V41.6Z" fill="#1999D6"/>
<path d="M13.2999 41.6H11.3999V43.2H13.2999V41.6Z" fill="#1999D6"/>
<path d="M11.4 41.6H9.5V43.2H11.4V41.6Z" fill="#1999D6"/>
<path d="M9.5001 41.6H7.6001V43.2H9.5001V41.6Z" fill="#1B5D9C"/>
<path d="M7.59995 41.6H5.69995V43.2H7.59995V41.6Z" fill="#1B5D9C"/>
<path d="M5.70005 41.6H3.80005V43.2H5.70005V41.6Z" fill="#1B5D9C"/>
<path d="M3.7999 41.6H1.8999V43.2H3.7999V41.6Z" fill="#34435F"/>
<path d="M1.9 41.6H0V43.2H1.9V41.6Z" fill="#201D1E"/>
<path d="M36.0999 40H34.2V41.6H36.0999V40Z" fill="#201D1E"/>
<path d="M34.2001 40H32.3V41.6H34.2001V40Z" fill="white"/>
<path d="M32.2999 40H30.3999V41.6H32.2999V40Z" fill="#1999D6"/>
<path d="M30.4 40H28.5V41.6H30.4V40Z" fill="#1999D6"/>
<path d="M28.5001 40H26.6001V41.6H28.5001V40Z" fill="#1999D6"/>
<path d="M26.5999 40H24.7V41.6H26.5999V40Z" fill="#1999D6"/>
<path d="M24.7001 40H22.8V41.6H24.7001V40Z" fill="#1999D6"/>
<path d="M22.7999 40H20.8999V41.6H22.7999V40Z" fill="#1999D6"/>
<path d="M20.9 40H19V41.6H20.9V40Z" fill="#1999D6"/>
<path d="M19.0001 40H17.1001V41.6H19.0001V40Z" fill="#1999D6"/>
<path d="M17.1 40H15.2V41.6H17.1V40Z" fill="#1999D6"/>
<path d="M15.2001 40H13.3V41.6H15.2001V40Z" fill="#1999D6"/>
<path d="M13.2999 40H11.3999V41.6H13.2999V40Z" fill="#1999D6"/>
<path d="M11.4 40H9.5V41.6H11.4V40Z" fill="#1999D6"/>
<path d="M9.5001 40H7.6001V41.6H9.5001V40Z" fill="#1999D6"/>
<path d="M7.59995 40H5.69995V41.6H7.59995V40Z" fill="#1971AF"/>
<path d="M5.70005 40H3.80005V41.6H5.70005V40Z" fill="#1B5D9C"/>
<path d="M3.7999 40H1.8999V41.6H3.7999V40Z" fill="#1B5D9C"/>
<path d="M1.9 40H0V41.6H1.9V40Z" fill="#201D1E"/>
<path d="M36.0999 38.4H34.2V40H36.0999V38.4Z" fill="#201D1E"/>
<path d="M34.2001 38.4H32.3V40H34.2001V38.4Z" fill="white"/>
<path d="M32.2999 38.4H30.3999V40H32.2999V38.4Z" fill="#1999D6"/>
<path d="M30.4 38.4H28.5V40H30.4V38.4Z" fill="#1999D6"/>
<path d="M28.5001 38.4H26.6001V40H28.5001V38.4Z" fill="#1999D6"/>
<path d="M26.5999 38.4H24.7V40H26.5999V38.4Z" fill="#1999D6"/>
<path d="M24.7001 38.4H22.8V40H24.7001V38.4Z" fill="#1999D6"/>
<path d="M22.7999 38.4H20.8999V40H22.7999V38.4Z" fill="#1999D6"/>
<path d="M20.9 38.4H19V40H20.9V38.4Z" fill="#1999D6"/>
<path d="M19.0001 38.4H17.1001V40H19.0001V38.4Z" fill="#1999D6"/>
<path d="M17.1 38.4H15.2V40H17.1V38.4Z" fill="#1999D6"/>
<path d="M15.2001 38.4H13.3V40H15.2001V38.4Z" fill="#1999D6"/>
<path d="M13.2999 38.4H11.3999V40H13.2999V38.4Z" fill="#1999D6"/>
<path d="M11.4 38.4H9.5V40H11.4V38.4Z" fill="#1999D6"/>
<path d="M9.5001 38.4H7.6001V40H9.5001V38.4Z" fill="#1999D6"/>
<path d="M7.59995 38.4H5.69995V40H7.59995V38.4Z" fill="#1999D6"/>
<path d="M5.70005 38.4H3.80005V40H5.70005V38.4Z" fill="#1B5D9C"/>
<path d="M3.7999 38.4H1.8999V40H3.7999V38.4Z" fill="#1B5D9C"/>
<path d="M1.9 38.4H0V40H1.9V38.4Z" fill="#201D1E"/>
<path d="M38.0001 36.8H36.1001V38.4H38.0001V36.8Z" fill="#201D1E"/>
<path d="M36.0999 36.8H34.2V38.4H36.0999V36.8Z" fill="white"/>
<path d="M34.2001 36.8H32.3V38.4H34.2001V36.8Z" fill="white"/>
<path d="M32.2999 36.8H30.3999V38.4H32.2999V36.8Z" fill="#1999D6"/>
<path d="M30.4 36.8H28.5V38.4H30.4V36.8Z" fill="#1999D6"/>
<path d="M28.5001 36.8H26.6001V38.4H28.5001V36.8Z" fill="#1999D6"/>
<path d="M26.5999 36.8H24.7V38.4H26.5999V36.8Z" fill="#1999D6"/>
<path d="M24.7001 36.8H22.8V38.4H24.7001V36.8Z" fill="#1999D6"/>
<path d="M22.7999 36.8H20.8999V38.4H22.7999V36.8Z" fill="#1999D6"/>
<path d="M20.9 36.8H19V38.4H20.9V36.8Z" fill="#1999D6"/>
<path d="M19.0001 36.8H17.1001V38.4H19.0001V36.8Z" fill="#1999D6"/>
<path d="M17.1 36.8H15.2V38.4H17.1V36.8Z" fill="#1999D6"/>
<path d="M15.2001 36.8H13.3V38.4H15.2001V36.8Z" fill="#1999D6"/>
<path d="M13.2999 36.8H11.3999V38.4H13.2999V36.8Z" fill="#201D1E"/>
<path d="M11.4 36.8H9.5V38.4H11.4V36.8Z" fill="#201D1E"/>
<path d="M9.5001 36.8H7.6001V38.4H9.5001V36.8Z" fill="#1999D6"/>
<path d="M7.59995 36.8H5.69995V38.4H7.59995V36.8Z" fill="#1999D6"/>
<path d="M5.70005 36.8H3.80005V38.4H5.70005V36.8Z" fill="#1B5D9C"/>
<path d="M3.7999 36.8H1.8999V38.4H3.7999V36.8Z" fill="#1B5D9C"/>
<path d="M1.9 36.8H0V38.4H1.9V36.8Z" fill="#201D1E"/>
<path d="M38.0001 35.2H36.1001V36.8H38.0001V35.2Z" fill="#201D1E"/>
<path d="M36.0999 35.2H34.2V36.8H36.0999V35.2Z" fill="white"/>
<path d="M34.2001 35.2H32.3V36.8H34.2001V35.2Z" fill="white"/>
<path d="M32.2999 35.2H30.3999V36.8H32.2999V35.2Z" fill="#1999D6"/>
<path d="M30.4 35.2H28.5V36.8H30.4V35.2Z" fill="#1999D6"/>
<path d="M28.5001 35.2H26.6001V36.8H28.5001V35.2Z" fill="#1999D6"/>
<path d="M26.5999 35.2H24.7V36.8H26.5999V35.2Z" fill="#1999D6"/>
<path d="M24.7001 35.2H22.8V36.8H24.7001V35.2Z" fill="#1999D6"/>
<path d="M22.7999 35.2H20.8999V36.8H22.7999V35.2Z" fill="#1999D6"/>
<path d="M20.9 35.2H19V36.8H20.9V35.2Z" fill="#1999D6"/>
<path d="M19.0001 35.2H17.1001V36.8H19.0001V35.2Z" fill="#1999D6"/>
<path d="M17.1 35.2H15.2V36.8H17.1V35.2Z" fill="#1999D6"/>
<path d="M15.2001 35.2H13.3V36.8H15.2001V35.2Z" fill="#1999D6"/>
<path d="M13.2999 35.2H11.3999V36.8H13.2999V35.2Z" fill="#201D1E"/>
<path d="M11.4 35.2H9.5V36.8H11.4V35.2Z" fill="#201D1E"/>
<path d="M9.5001 35.2H7.6001V36.8H9.5001V35.2Z" fill="#1999D6"/>
<path d="M7.59995 35.2H5.69995V36.8H7.59995V35.2Z" fill="#1999D6"/>
<path d="M5.70005 35.2H3.80005V36.8H5.70005V35.2Z" fill="#1B5D9C"/>
<path d="M3.7999 35.2H1.8999V36.8H3.7999V35.2Z" fill="#1B5D9C"/>
<path d="M1.9 35.2H0V36.8H1.9V35.2Z" fill="#201D1E"/>
<path d="M38.0001 33.6H36.1001V35.2H38.0001V33.6Z" fill="#201D1E"/>
<path d="M36.0999 33.6H34.2V35.2H36.0999V33.6Z" fill="white"/>
<path d="M34.2001 33.6H32.3V35.2H34.2001V33.6Z" fill="white"/>
<path d="M32.2999 33.6H30.3999V35.2H32.2999V33.6Z" fill="#1999D6"/>
<path d="M30.4 33.6H28.5V35.2H30.4V33.6Z" fill="#1999D6"/>
<path d="M28.5001 33.6H26.6001V35.2H28.5001V33.6Z" fill="#1999D6"/>
<path d="M26.5999 33.6H24.7V35.2H26.5999V33.6Z" fill="#1999D6"/>
<path d="M24.7001 33.6H22.8V35.2H24.7001V33.6Z" fill="#201D1E"/>
<path d="M22.7999 33.6H20.8999V35.2H22.7999V33.6Z" fill="#201D1E"/>
<path d="M20.9 33.6H19V35.2H20.9V33.6Z" fill="#1999D6"/>
<path d="M19.0001 33.6H17.1001V35.2H19.0001V33.6Z" fill="#1999D6"/>
<path d="M17.1 33.6H15.2V35.2H17.1V33.6Z" fill="#201D1E"/>
<path d="M15.2001 33.6H13.3V35.2H15.2001V33.6Z" fill="#222123"/>
<path d="M13.2999 33.6H11.3999V35.2H13.2999V33.6Z" fill="#211E20"/>
<path d="M11.4 33.6H9.5V35.2H11.4V33.6Z" fill="#201D1E"/>
<path d="M9.5001 33.6H7.6001V35.2H9.5001V33.6Z" fill="#222123"/>
<path d="M7.59995 33.6H5.69995V35.2H7.59995V33.6Z" fill="#222123"/>
<path d="M5.70005 33.6H3.80005V35.2H5.70005V33.6Z" fill="#1B5D9C"/>
<path d="M3.7999 33.6H1.8999V35.2H3.7999V33.6Z" fill="#1B5D9C"/>
<path d="M1.9 33.6H0V35.2H1.9V33.6Z" fill="#201D1E"/>
<path d="M38.0001 32H36.1001V33.6H38.0001V32Z" fill="#201D1E"/>
<path d="M36.0999 32H34.2V33.6H36.0999V32Z" fill="white"/>
<path d="M34.2001 32H32.3V33.6H34.2001V32Z" fill="white"/>
<path d="M32.2999 32H30.3999V33.6H32.2999V32Z" fill="#1999D6"/>
<path d="M30.4 32H28.5V33.6H30.4V32Z" fill="#1999D6"/>
<path d="M28.5001 32H26.6001V33.6H28.5001V32Z" fill="#1999D6"/>
<path d="M26.5999 32H24.7V33.6H26.5999V32Z" fill="#1999D6"/>
<path d="M24.7001 32H22.8V33.6H24.7001V32Z" fill="#201D1E"/>
<path d="M22.7999 32H20.8999V33.6H22.7999V32Z" fill="#201D1E"/>
<path d="M20.9 32H19V33.6H20.9V32Z" fill="#1999D6"/>
<path d="M19.0001 32H17.1001V33.6H19.0001V32Z" fill="#1999D6"/>
<path d="M17.1 32H15.2V33.6H17.1V32Z" fill="#201D1E"/>
<path d="M15.2001 32H13.3V33.6H15.2001V32Z" fill="#201D1E"/>
<path d="M13.2999 32H11.3999V33.6H13.2999V32Z" fill="#201D1E"/>
<path d="M11.4 32H9.5V33.6H11.4V32Z" fill="#201D1E"/>
<path d="M9.5001 32H7.6001V33.6H9.5001V32Z" fill="#201D1E"/>
<path d="M7.59995 32H5.69995V33.6H7.59995V32Z" fill="#201D1E"/>
<path d="M5.70005 32H3.80005V33.6H5.70005V32Z" fill="#1B5D9C"/>
<path d="M3.7999 32H1.8999V33.6H3.7999V32Z" fill="#1B5D9C"/>
<path d="M1.9 32H0V33.6H1.9V32Z" fill="#201D1E"/>
<path d="M38.0001 30.4H36.1001V32H38.0001V30.4Z" fill="#201D1E"/>
<path d="M36.0999 30.4H34.2V32H36.0999V30.4Z" fill="white"/>
<path d="M34.2001 30.4H32.3V32H34.2001V30.4Z" fill="white"/>
<path d="M32.2999 30.4H30.3999V32H32.2999V30.4Z" fill="#1999D6"/>
<path d="M30.4 30.4H28.5V32H30.4V30.4Z" fill="#1999D6"/>
<path d="M28.5001 30.4H26.6001V32H28.5001V30.4Z" fill="#1999D6"/>
<path d="M26.5999 30.4H24.7V32H26.5999V30.4Z" fill="#1999D6"/>
<path d="M24.7001 30.4H22.8V32H24.7001V30.4Z" fill="#1999D6"/>
<path d="M22.7999 30.4H20.8999V32H22.7999V30.4Z" fill="#1999D6"/>
<path d="M20.9 30.4H19V32H20.9V30.4Z" fill="#1999D6"/>
<path d="M19.0001 30.4H17.1001V32H19.0001V30.4Z" fill="#1999D6"/>
<path d="M17.1 30.4H15.2V32H17.1V30.4Z" fill="#201D1E"/>
<path d="M15.2001 30.4H13.3V32H15.2001V30.4Z" fill="#201D1E"/>
<path d="M13.2999 30.4H11.3999V32H13.2999V30.4Z" fill="#201D1E"/>
<path d="M11.4 30.4H9.5V32H11.4V30.4Z" fill="#201D1E"/>
<path d="M9.5001 30.4H7.6001V32H9.5001V30.4Z" fill="#201D1E"/>
<path d="M7.59995 30.4H5.69995V32H7.59995V30.4Z" fill="#201D1E"/>
<path d="M5.70005 30.4H3.80005V32H5.70005V30.4Z" fill="#1B5D9C"/>
<path d="M3.7999 30.4H1.8999V32H3.7999V30.4Z" fill="#1B5D9C"/>
<path d="M1.9 30.4H0V32H1.9V30.4Z" fill="#201D1E"/>
<path d="M38.0001 28.8H36.1001V30.4H38.0001V28.8Z" fill="#201D1E"/>
<path d="M36.0999 28.8H34.2V30.4H36.0999V28.8Z" fill="white"/>
<path d="M34.2001 28.8H32.3V30.4H34.2001V28.8Z" fill="white"/>
<path d="M32.2999 28.8H30.3999V30.4H32.2999V28.8Z" fill="#1999D6"/>
<path d="M30.4 28.8H28.5V30.4H30.4V28.8Z" fill="#201D1E"/>
<path d="M28.5001 28.8H26.6001V30.4H28.5001V28.8Z" fill="#201D1E"/>
<path d="M26.5999 28.8H24.7V30.4H26.5999V28.8Z" fill="#1999D6"/>
<path d="M24.7001 28.8H22.8V30.4H24.7001V28.8Z" fill="#1999D6"/>
<path d="M22.7999 28.8H20.8999V30.4H22.7999V28.8Z" fill="#1999D6"/>
<path d="M20.9 28.8H19V30.4H20.9V28.8Z" fill="#1999D6"/>
<path d="M19.0001 28.8H17.1001V30.4H19.0001V28.8Z" fill="#1999D6"/>
<path d="M17.1 28.8H15.2V30.4H17.1V28.8Z" fill="#1999D6"/>
<path d="M15.2001 28.8H13.3V30.4H15.2001V28.8Z" fill="#1999D6"/>
<path d="M13.2999 28.8H11.3999V30.4H13.2999V28.8Z" fill="#201D1E"/>
<path d="M11.4 28.8H9.5V30.4H11.4V28.8Z" fill="#201D1E"/>
<path d="M9.5001 28.8H7.6001V30.4H9.5001V28.8Z" fill="#1999D6"/>
<path d="M7.59995 28.8H5.69995V30.4H7.59995V28.8Z" fill="#1999D6"/>
<path d="M5.70005 28.8H3.80005V30.4H5.70005V28.8Z" fill="#1B5D9C"/>
<path d="M3.7999 28.8H1.8999V30.4H3.7999V28.8Z" fill="#1B5D9C"/>
<path d="M1.9 28.8H0V30.4H1.9V28.8Z" fill="#201D1E"/>
<path d="M38.0001 27.2H36.1001V28.8H38.0001V27.2Z" fill="#201D1E"/>
<path d="M36.0999 27.2H34.2V28.8H36.0999V27.2Z" fill="white"/>
<path d="M34.2001 27.2H32.3V28.8H34.2001V27.2Z" fill="white"/>
<path d="M32.2999 27.2H30.3999V28.8H32.2999V27.2Z" fill="#1999D6"/>
<path d="M30.4 27.2H28.5V28.8H30.4V27.2Z" fill="#201D1E"/>
<path d="M28.5001 27.2H26.6001V28.8H28.5001V27.2Z" fill="#201D1E"/>
<path d="M26.5999 27.2H24.7V28.8H26.5999V27.2Z" fill="#1999D6"/>
<path d="M24.7001 27.2H22.8V28.8H24.7001V27.2Z" fill="#1999D6"/>
<path d="M22.7999 27.2H20.8999V28.8H22.7999V27.2Z" fill="#1999D6"/>
<path d="M20.9 27.2H19V28.8H20.9V27.2Z" fill="#1999D6"/>
<path d="M19.0001 27.2H17.1001V28.8H19.0001V27.2Z" fill="#1999D6"/>
<path d="M17.1 27.2H15.2V28.8H17.1V27.2Z" fill="#1999D6"/>
<path d="M15.2001 27.2H13.3V28.8H15.2001V27.2Z" fill="#1999D6"/>
<path d="M13.2999 27.2H11.3999V28.8H13.2999V27.2Z" fill="#201D1E"/>
<path d="M11.4 27.2H9.5V28.8H11.4V27.2Z" fill="#201D1E"/>
<path d="M9.5001 27.2H7.6001V28.8H9.5001V27.2Z" fill="#1999D6"/>
<path d="M7.59995 27.2H5.69995V28.8H7.59995V27.2Z" fill="#1999D6"/>
<path d="M5.70005 27.2H3.80005V28.8H5.70005V27.2Z" fill="#1B5D9C"/>
<path d="M3.7999 27.2H1.8999V28.8H3.7999V27.2Z" fill="#1B5D9C"/>
<path d="M1.9 27.2H0V28.8H1.9V27.2Z" fill="#201D1E"/>
<path d="M38.0001 25.6H36.1001V27.2H38.0001V25.6Z" fill="#201D1E"/>
<path d="M36.0999 25.6H34.2V27.2H36.0999V25.6Z" fill="white"/>
<path d="M34.2001 25.6H32.3V27.2H34.2001V25.6Z" fill="white"/>
<path d="M32.2999 25.6H30.3999V27.2H32.2999V25.6Z" fill="#1999D6"/>
<path d="M30.4 25.6H28.5V27.2H30.4V25.6Z" fill="#1999D6"/>
<path d="M28.5001 25.6H26.6001V27.2H28.5001V25.6Z" fill="#1999D6"/>
<path d="M26.5999 25.6H24.7V27.2H26.5999V25.6Z" fill="#1999D6"/>
<path d="M24.7001 25.6H22.8V27.2H24.7001V25.6Z" fill="#1999D6"/>
<path d="M22.7999 25.6H20.8999V27.2H22.7999V25.6Z" fill="#1999D6"/>
<path d="M20.9 25.6H19V27.2H20.9V25.6Z" fill="#1999D6"/>
<path d="M19.0001 25.6H17.1001V27.2H19.0001V25.6Z" fill="#1999D6"/>
<path d="M17.1 25.6H15.2V27.2H17.1V25.6Z" fill="#1999D6"/>
<path d="M15.2001 25.6H13.3V27.2H15.2001V25.6Z" fill="#1999D6"/>
<path d="M13.2999 25.6H11.3999V27.2H13.2999V25.6Z" fill="#1999D6"/>
<path d="M11.4 25.6H9.5V27.2H11.4V25.6Z" fill="#1999D6"/>
<path d="M9.5001 25.6H7.6001V27.2H9.5001V25.6Z" fill="#1999D6"/>
<path d="M7.59995 25.6H5.69995V27.2H7.59995V25.6Z" fill="#1999D6"/>
<path d="M5.70005 25.6H3.80005V27.2H5.70005V25.6Z" fill="#1B5D9C"/>
<path d="M3.7999 25.6H1.8999V27.2H3.7999V25.6Z" fill="#1B5D9C"/>
<path d="M1.9 25.6H0V27.2H1.9V25.6Z" fill="#201D1E"/>
<path d="M38.0001 24H36.1001V25.6H38.0001V24Z" fill="#201D1E"/>
<path d="M36.0999 24H34.2V25.6H36.0999V24Z" fill="white"/>
<path d="M34.2001 24H32.3V25.6H34.2001V24Z" fill="white"/>
<path d="M32.2999 24H30.3999V25.6H32.2999V24Z" fill="#1999D6"/>
<path d="M30.4 24H28.5V25.6H30.4V24Z" fill="#1999D6"/>
<path d="M28.5001 24H26.6001V25.6H28.5001V24Z" fill="#1999D6"/>
<path d="M26.5999 24H24.7V25.6H26.5999V24Z" fill="#1999D6"/>
<path d="M24.7001 24H22.8V25.6H24.7001V24Z" fill="#1999D6"/>
<path d="M22.7999 24H20.8999V25.6H22.7999V24Z" fill="#1999D6"/>
<path d="M20.9 24H19V25.6H20.9V24Z" fill="#1999D6"/>
<path d="M19.0001 24H17.1001V25.6H19.0001V24Z" fill="#1999D6"/>
<path d="M17.1 24H15.2V25.6H17.1V24Z" fill="#1999D6"/>
<path d="M15.2001 24H13.3V25.6H15.2001V24Z" fill="#1999D6"/>
<path d="M13.2999 24H11.3999V25.6H13.2999V24Z" fill="#1999D6"/>
<path d="M11.4 24H9.5V25.6H11.4V24Z" fill="#1999D6"/>
<path d="M9.5001 24H7.6001V25.6H9.5001V24Z" fill="#1999D6"/>
<path d="M7.59995 24H5.69995V25.6H7.59995V24Z" fill="#1999D6"/>
<path d="M5.70005 24H3.80005V25.6H5.70005V24Z" fill="#1B5D9C"/>
<path d="M3.7999 24H1.8999V25.6H3.7999V24Z" fill="#1B5D9C"/>
<path d="M1.9 24H0V25.6H1.9V24Z" fill="#201D1E"/>
<path d="M38.0001 22.4H36.1001V24H38.0001V22.4Z" fill="#201D1E"/>
<path d="M36.0999 22.4H34.2V24H36.0999V22.4Z" fill="white"/>
<path d="M34.2001 22.4H32.3V24H34.2001V22.4Z" fill="white"/>
<path d="M32.2999 22.4H30.3999V24H32.2999V22.4Z" fill="#1999D6"/>
<path d="M30.4 22.4H28.5V24H30.4V22.4Z" fill="#1999D6"/>
<path d="M28.5001 22.4H26.6001V24H28.5001V22.4Z" fill="#1999D6"/>
<path d="M26.5999 22.4H24.7V24H26.5999V22.4Z" fill="#1999D6"/>
<path d="M24.7001 22.4H22.8V24H24.7001V22.4Z" fill="#1999D6"/>
<path d="M22.7999 22.4H20.8999V24H22.7999V22.4Z" fill="#1999D6"/>
<path d="M20.9 22.4H19V24H20.9V22.4Z" fill="#1999D6"/>
<path d="M19.0001 22.4H17.1001V24H19.0001V22.4Z" fill="#1999D6"/>
<path d="M17.1 22.4H15.2V24H17.1V22.4Z" fill="#1999D6"/>
<path d="M15.2001 22.4H13.3V24H15.2001V22.4Z" fill="#1999D6"/>
<path d="M13.2999 22.4H11.3999V24H13.2999V22.4Z" fill="#1999D6"/>
<path d="M11.4 22.4H9.5V24H11.4V22.4Z" fill="#1999D6"/>
<path d="M9.5001 22.4H7.6001V24H9.5001V22.4Z" fill="#1999D6"/>
<path d="M7.59995 22.4H5.69995V24H7.59995V22.4Z" fill="#1999D6"/>
<path d="M5.70005 22.4H3.80005V24H5.70005V22.4Z" fill="#1B5D9C"/>
<path d="M3.7999 22.4H1.8999V24H3.7999V22.4Z" fill="#1B5D9C"/>
<path d="M1.9 22.4H0V24H1.9V22.4Z" fill="#201D1E"/>
<path d="M38.0001 20.8H36.1001V22.4H38.0001V20.8Z" fill="#201D1E"/>
<path d="M36.0999 20.8H34.2V22.4H36.0999V20.8Z" fill="white"/>
<path d="M34.2001 20.8H32.3V22.4H34.2001V20.8Z" fill="white"/>
<path d="M32.2999 20.8H30.3999V22.4H32.2999V20.8Z" fill="#201D1E"/>
<path d="M30.4 20.8H28.5V22.4H30.4V20.8Z" fill="#201D1E"/>
<path d="M28.5001 20.8H26.6001V22.4H28.5001V20.8Z" fill="#201D1E"/>
<path d="M26.5999 20.8H24.7V22.4H26.5999V20.8Z" fill="#201D1E"/>
<path d="M24.7001 20.8H22.8V22.4H24.7001V20.8Z" fill="#201D1E"/>
<path d="M22.7999 20.8H20.8999V22.4H22.7999V20.8Z" fill="#201D1E"/>
<path d="M20.9 20.8H19V22.4H20.9V20.8Z" fill="#201D1E"/>
<path d="M19.0001 20.8H17.1001V22.4H19.0001V20.8Z" fill="#201D1E"/>
<path d="M17.1 20.8H15.2V22.4H17.1V20.8Z" fill="#201D1E"/>
<path d="M15.2001 20.8H13.3V22.4H15.2001V20.8Z" fill="#201D1E"/>
<path d="M13.2999 20.8H11.3999V22.4H13.2999V20.8Z" fill="#201D1E"/>
<path d="M11.4 20.8H9.5V22.4H11.4V20.8Z" fill="#201D1E"/>
<path d="M9.5001 20.8H7.6001V22.4H9.5001V20.8Z" fill="#201D1E"/>
<path d="M7.59995 20.8H5.69995V22.4H7.59995V20.8Z" fill="#201D1E"/>
<path d="M5.70005 20.8H3.80005V22.4H5.70005V20.8Z" fill="#1B5D9C"/>
<path d="M3.7999 20.8H1.8999V22.4H3.7999V20.8Z" fill="#1B5D9C"/>
<path d="M1.9 20.8H0V22.4H1.9V20.8Z" fill="#201D1E"/>
<path d="M38.0001 19.2H36.1001V20.8H38.0001V19.2Z" fill="#201D1E"/>
<path d="M36.0999 19.2H34.2V20.8H36.0999V19.2Z" fill="white"/>
<path d="M34.2001 19.2H32.3V20.8H34.2001V19.2Z" fill="#201D1E"/>
<path d="M32.2999 19.2H30.3999V20.8H32.2999V19.2Z" fill="#201D1E"/>
<path d="M30.4 19.2H28.5V20.8H30.4V19.2Z" fill="#797574"/>
<path d="M28.5001 19.2H26.6001V20.8H28.5001V19.2Z" fill="#797574"/>
<path d="M26.5999 19.2H24.7V20.8H26.5999V19.2Z" fill="#979594"/>
<path d="M24.7001 19.2H22.8V20.8H24.7001V19.2Z" fill="#979594"/>
<path d="M22.7999 19.2H20.8999V20.8H22.7999V19.2Z" fill="#797574"/>
<path d="M20.9 19.2H19V20.8H20.9V19.2Z" fill="#979594"/>
<path d="M19.0001 19.2H17.1001V20.8H19.0001V19.2Z" fill="#979594"/>
<path d="M17.1 19.2H15.2V20.8H17.1V19.2Z" fill="#979594"/>
<path d="M15.2001 19.2H13.3V20.8H15.2001V19.2Z" fill="#797574"/>
<path d="M13.2999 19.2H11.3999V20.8H13.2999V19.2Z" fill="#797574"/>
<path d="M11.4 19.2H9.5V20.8H11.4V19.2Z" fill="#797574"/>
<path d="M9.5001 19.2H7.6001V20.8H9.5001V19.2Z" fill="#797574"/>
<path d="M7.59995 19.2H5.69995V20.8H7.59995V19.2Z" fill="#201D1E"/>
<path d="M5.70005 19.2H3.80005V20.8H5.70005V19.2Z" fill="#323E54"/>
<path d="M3.7999 19.2H1.8999V20.8H3.7999V19.2Z" fill="#1B5D9C"/>
<path d="M1.9 19.2H0V20.8H1.9V19.2Z" fill="#201D1E"/>
<path d="M38.0001 17.6H36.1001V19.2H38.0001V17.6Z" fill="#201D1E"/>
<path d="M36.0999 17.6H34.2V19.2H36.0999V17.6Z" fill="white"/>
<path d="M34.2001 17.6H32.3V19.2H34.2001V17.6Z" fill="#201D1E"/>
<path d="M32.2999 17.6H30.3999V19.2H32.2999V17.6Z" fill="#201D1E"/>
<path d="M30.4 17.6H28.5V19.2H30.4V17.6Z" fill="#797574"/>
<path d="M28.5001 17.6H26.6001V19.2H28.5001V17.6Z" fill="#797574"/>
<path d="M26.5999 17.6H24.7V19.2H26.5999V17.6Z" fill="#797574"/>
<path d="M24.7001 17.6H22.8V19.2H24.7001V17.6Z" fill="#979594"/>
<path d="M22.7999 17.6H20.8999V19.2H22.7999V17.6Z" fill="#797574"/>
<path d="M20.9 17.6H19V19.2H20.9V17.6Z" fill="#979594"/>
<path d="M19.0001 17.6H17.1001V19.2H19.0001V17.6Z" fill="#979594"/>
<path d="M17.1 17.6H15.2V19.2H17.1V17.6Z" fill="#979594"/>
<path d="M15.2001 17.6H13.3V19.2H15.2001V17.6Z" fill="#797574"/>
<path d="M13.2999 17.6H11.3999V19.2H13.2999V17.6Z" fill="#797574"/>
<path d="M11.4 17.6H9.5V19.2H11.4V17.6Z" fill="#797574"/>
<path d="M9.5001 17.6H7.6001V19.2H9.5001V17.6Z" fill="#797574"/>
<path d="M7.59995 17.6H5.69995V19.2H7.59995V17.6Z" fill="#201D1E"/>
<path d="M5.70005 17.6H3.80005V19.2H5.70005V17.6Z" fill="#201D1E"/>
<path d="M3.7999 17.6H1.8999V19.2H3.7999V17.6Z" fill="#1B5D9C"/>
<path d="M1.9 17.6H0V19.2H1.9V17.6Z" fill="#201D1E"/>
<path d="M38.0001 16H36.1001V17.6H38.0001V16Z" fill="#201D1E"/>
<path d="M36.0999 16H34.2V17.6H36.0999V16Z" fill="white"/>
<path d="M34.2001 16H32.3V17.6H34.2001V16Z" fill="#201D1E"/>
<path d="M32.2999 16H30.3999V17.6H32.2999V16Z" fill="#201D1E"/>
<path d="M30.4 16H28.5V17.6H30.4V16Z" fill="#797574"/>
<path d="M28.5001 16H26.6001V17.6H28.5001V16Z" fill="#797574"/>
<path d="M26.5999 16H24.7V17.6H26.5999V16Z" fill="#797574"/>
<path d="M24.7001 16H22.8V17.6H24.7001V16Z" fill="#979594"/>
<path d="M22.7999 16H20.8999V17.6H22.7999V16Z" fill="#969593"/>
<path d="M20.9 16H19V17.6H20.9V16Z" fill="#979594"/>
<path d="M19.0001 16H17.1001V17.6H19.0001V16Z" fill="#979594"/>
<path d="M17.1 16H15.2V17.6H17.1V16Z" fill="#979594"/>
<path d="M15.2001 16H13.3V17.6H15.2001V16Z" fill="#888684"/>
<path d="M13.2999 16H11.3999V17.6H13.2999V16Z" fill="#797574"/>
<path d="M11.4 16H9.5V17.6H11.4V16Z" fill="#797574"/>
<path d="M9.5001 16H7.6001V17.6H9.5001V16Z" fill="#797574"/>
<path d="M7.59995 16H5.69995V17.6H7.59995V16Z" fill="#201D1E"/>
<path d="M5.70005 16H3.80005V17.6H5.70005V16Z" fill="#201D1E"/>
<path d="M3.7999 16H1.8999V17.6H3.7999V16Z" fill="#1B5D9C"/>
<path d="M1.9 16H0V17.6H1.9V16Z" fill="#201D1E"/>
<path d="M38.0001 14.4H36.1001V16H38.0001V14.4Z" fill="#201D1E"/>
<path d="M36.0999 14.4H34.2V16H36.0999V14.4Z" fill="white"/>
<path d="M34.2001 14.4H32.3V16H34.2001V14.4Z" fill="#201D1E"/>
<path d="M32.2999 14.4H30.3999V16H32.2999V14.4Z" fill="#201D1E"/>
<path d="M30.4 14.4H28.5V16H30.4V14.4Z" fill="#797574"/>
<path d="M28.5001 14.4H26.6001V16H28.5001V14.4Z" fill="#797574"/>
<path d="M26.5999 14.4H24.7V16H26.5999V14.4Z" fill="#797574"/>
<path d="M24.7001 14.4H22.8V16H24.7001V14.4Z" fill="#979594"/>
<path d="M22.7999 14.4H20.8999V16H22.7999V14.4Z" fill="#979594"/>
<path d="M20.9 14.4H19V16H20.9V14.4Z" fill="#898685"/>
<path d="M19.0001 14.4H17.1001V16H19.0001V14.4Z" fill="#979594"/>
<path d="M17.1 14.4H15.2V16H17.1V14.4Z" fill="#979594"/>
<path d="M15.2001 14.4H13.3V16H15.2001V14.4Z" fill="#979594"/>
<path d="M13.2999 14.4H11.3999V16H13.2999V14.4Z" fill="#797574"/>
<path d="M11.4 14.4H9.5V16H11.4V14.4Z" fill="#797574"/>
<path d="M9.5001 14.4H7.6001V16H9.5001V14.4Z" fill="#797574"/>
<path d="M7.59995 14.4H5.69995V16H7.59995V14.4Z" fill="#201D1E"/>
<path d="M5.70005 14.4H3.80005V16H5.70005V14.4Z" fill="#201D1E"/>
<path d="M3.7999 14.4H1.8999V16H3.7999V14.4Z" fill="#1B5D9C"/>
<path d="M1.9 14.4H0V16H1.9V14.4Z" fill="#201D1E"/>
<path d="M38.0001 12.8H36.1001V14.4H38.0001V12.8Z" fill="#201D1E"/>
<path d="M36.0999 12.8H34.2V14.4H36.0999V12.8Z" fill="white"/>
<path d="M34.2001 12.8H32.3V14.4H34.2001V12.8Z" fill="#201D1E"/>
<path d="M32.2999 12.8H30.3999V14.4H32.2999V12.8Z" fill="#201D1E"/>
<path d="M30.4 12.8H28.5V14.4H30.4V12.8Z" fill="#797574"/>
<path d="M28.5001 12.8H26.6001V14.4H28.5001V12.8Z" fill="#797574"/>
<path d="M26.5999 12.8H24.7V14.4H26.5999V12.8Z" fill="#797574"/>
<path d="M24.7001 12.8H22.8V14.4H24.7001V12.8Z" fill="#8D8B89"/>
<path d="M22.7999 12.8H20.8999V14.4H22.7999V12.8Z" fill="#979594"/>
<path d="M20.9 12.8H19V14.4H20.9V12.8Z" fill="#797574"/>
<path d="M19.0001 12.8H17.1001V14.4H19.0001V12.8Z" fill="#979594"/>
<path d="M17.1 12.8H15.2V14.4H17.1V12.8Z" fill="#979594"/>
<path d="M15.2001 12.8H13.3V14.4H15.2001V12.8Z" fill="#979594"/>
<path d="M13.2999 12.8H11.3999V14.4H13.2999V12.8Z" fill="#797574"/>
<path d="M11.4 12.8H9.5V14.4H11.4V12.8Z" fill="#797574"/>
<path d="M9.5001 12.8H7.6001V14.4H9.5001V12.8Z" fill="#797574"/>
<path d="M7.59995 12.8H5.69995V14.4H7.59995V12.8Z" fill="#201D1E"/>
<path d="M5.70005 12.8H3.80005V14.4H5.70005V12.8Z" fill="#201D1E"/>
<path d="M3.7999 12.8H1.8999V14.4H3.7999V12.8Z" fill="#1B5D9C"/>
<path d="M1.9 12.8H0V14.4H1.9V12.8Z" fill="#201D1E"/>
<path d="M38.0001 11.2H36.1001V12.8H38.0001V11.2Z" fill="#201D1E"/>
<path d="M36.0999 11.2H34.2V12.8H36.0999V11.2Z" fill="white"/>
<path d="M34.2001 11.2H32.3V12.8H34.2001V11.2Z" fill="#201D1E"/>
<path d="M32.2999 11.2H30.3999V12.8H32.2999V11.2Z" fill="#201D1E"/>
<path d="M30.4 11.2H28.5V12.8H30.4V11.2Z" fill="#797574"/>
<path d="M28.5001 11.2H26.6001V12.8H28.5001V11.2Z" fill="#797574"/>
<path d="M26.5999 11.2H24.7V12.8H26.5999V11.2Z" fill="#797574"/>
<path d="M24.7001 11.2H22.8V12.8H24.7001V11.2Z" fill="#797574"/>
<path d="M22.7999 11.2H20.8999V12.8H22.7999V11.2Z" fill="#979594"/>
<path d="M20.9 11.2H19V12.8H20.9V11.2Z" fill="#797574"/>
<path d="M19.0001 11.2H17.1001V12.8H19.0001V11.2Z" fill="#979594"/>
<path d="M17.1 11.2H15.2V12.8H17.1V11.2Z" fill="#979594"/>
<path d="M15.2001 11.2H13.3V12.8H15.2001V11.2Z" fill="#979594"/>
<path d="M13.2999 11.2H11.3999V12.8H13.2999V11.2Z" fill="#797574"/>
<path d="M11.4 11.2H9.5V12.8H11.4V11.2Z" fill="#797574"/>
<path d="M9.5001 11.2H7.6001V12.8H9.5001V11.2Z" fill="#797574"/>
<path d="M7.59995 11.2H5.69995V12.8H7.59995V11.2Z" fill="#201D1E"/>
<path d="M5.70005 11.2H3.80005V12.8H5.70005V11.2Z" fill="#201D1E"/>
<path d="M3.7999 11.2H1.8999V12.8H3.7999V11.2Z" fill="#1B5D9C"/>
<path d="M1.9 11.2H0V12.8H1.9V11.2Z" fill="#201D1E"/>
<path d="M38.0001 9.59998H36.1001V11.2H38.0001V9.59998Z" fill="#201D1E"/>
<path d="M36.0999 9.59998H34.2V11.2H36.0999V9.59998Z" fill="white"/>
<path d="M34.2001 9.59998H32.3V11.2H34.2001V9.59998Z" fill="#201D1E"/>
<path d="M32.2999 9.59998H30.3999V11.2H32.2999V9.59998Z" fill="#201D1E"/>
<path d="M30.4 9.59998H28.5V11.2H30.4V9.59998Z" fill="#797574"/>
<path d="M28.5001 9.59998H26.6001V11.2H28.5001V9.59998Z" fill="#797574"/>
<path d="M26.5999 9.59998H24.7V11.2H26.5999V9.59998Z" fill="#797574"/>
<path d="M24.7001 9.59998H22.8V11.2H24.7001V9.59998Z" fill="#797574"/>
<path d="M22.7999 9.59998H20.8999V11.2H22.7999V9.59998Z" fill="#979594"/>
<path d="M20.9 9.59998H19V11.2H20.9V9.59998Z" fill="#979594"/>
<path d="M19.0001 9.59998H17.1001V11.2H19.0001V9.59998Z" fill="#979594"/>
<path d="M17.1 9.59998H15.2V11.2H17.1V9.59998Z" fill="#979594"/>
<path d="M15.2001 9.59998H13.3V11.2H15.2001V9.59998Z" fill="#979594"/>
<path d="M13.2999 9.59998H11.3999V11.2H13.2999V9.59998Z" fill="#979594"/>
<path d="M11.4 9.59998H9.5V11.2H11.4V9.59998Z" fill="#797574"/>
<path d="M9.5001 9.59998H7.6001V11.2H9.5001V9.59998Z" fill="#797574"/>
<path d="M7.59995 9.59998H5.69995V11.2H7.59995V9.59998Z" fill="#201D1E"/>
<path d="M5.70005 9.59998H3.80005V11.2H5.70005V9.59998Z" fill="#201D1E"/>
<path d="M3.7999 9.59998H1.8999V11.2H3.7999V9.59998Z" fill="#1B5D9C"/>
<path d="M1.9 9.59998H0V11.2H1.9V9.59998Z" fill="#201D1E"/>
<path d="M38.0001 8H36.1001V9.6H38.0001V8Z" fill="#201D1E"/>
<path d="M36.0999 8H34.2V9.6H36.0999V8Z" fill="white"/>
<path d="M34.2001 8H32.3V9.6H34.2001V8Z" fill="#201D1E"/>
<path d="M32.2999 8H30.3999V9.6H32.2999V8Z" fill="#201D1E"/>
<path d="M30.4 8H28.5V9.6H30.4V8Z" fill="#797574"/>
<path d="M28.5001 8H26.6001V9.6H28.5001V8Z" fill="#797574"/>
<path d="M26.5999 8H24.7V9.6H26.5999V8Z" fill="#797574"/>
<path d="M24.7001 8H22.8V9.6H24.7001V8Z" fill="#797574"/>
<path d="M22.7999 8H20.8999V9.6H22.7999V8Z" fill="#979594"/>
<path d="M20.9 8H19V9.6H20.9V8Z" fill="#979594"/>
<path d="M19.0001 8H17.1001V9.6H19.0001V8Z" fill="#797574"/>
<path d="M17.1 8H15.2V9.6H17.1V8Z" fill="#979594"/>
<path d="M15.2001 8H13.3V9.6H15.2001V8Z" fill="#979594"/>
<path d="M13.2999 8H11.3999V9.6H13.2999V8Z" fill="#979594"/>
<path d="M11.4 8H9.5V9.6H11.4V8Z" fill="#797574"/>
<path d="M9.5001 8H7.6001V9.6H9.5001V8Z" fill="#797574"/>
<path d="M7.59995 8H5.69995V9.6H7.59995V8Z" fill="#201D1E"/>
<path d="M5.70005 8H3.80005V9.6H5.70005V8Z" fill="#201D1E"/>
<path d="M3.7999 8H1.8999V9.6H3.7999V8Z" fill="#1B5D9C"/>
<path d="M1.9 8H0V9.6H1.9V8Z" fill="#201D1E"/>
<path d="M38.0001 6.40002H36.1001V8.00002H38.0001V6.40002Z" fill="#201D1E"/>
<path d="M36.0999 6.40002H34.2V8.00002H36.0999V6.40002Z" fill="white"/>
<path d="M34.2001 6.40002H32.3V8.00002H34.2001V6.40002Z" fill="#201D1E"/>
<path d="M32.2999 6.40002H30.3999V8.00002H32.2999V6.40002Z" fill="#201D1E"/>
<path d="M30.4 6.40002H28.5V8.00002H30.4V6.40002Z" fill="#797574"/>
<path d="M28.5001 6.40002H26.6001V8.00002H28.5001V6.40002Z" fill="#797574"/>
<path d="M26.5999 6.40002H24.7V8.00002H26.5999V6.40002Z" fill="#797574"/>
<path d="M24.7001 6.40002H22.8V8.00002H24.7001V6.40002Z" fill="#797574"/>
<path d="M22.7999 6.40002H20.8999V8.00002H22.7999V6.40002Z" fill="#878382"/>
<path d="M20.9 6.40002H19V8.00002H20.9V6.40002Z" fill="#979594"/>
<path d="M19.0001 6.40002H17.1001V8.00002H19.0001V6.40002Z" fill="#797574"/>
<path d="M17.1 6.40002H15.2V8.00002H17.1V6.40002Z" fill="#979594"/>
<path d="M15.2001 6.40002H13.3V8.00002H15.2001V6.40002Z" fill="#979594"/>
<path d="M13.2999 6.40002H11.3999V8.00002H13.2999V6.40002Z" fill="#979594"/>
<path d="M11.4 6.40002H9.5V8.00002H11.4V6.40002Z" fill="#797574"/>
<path d="M9.5001 6.40002H7.6001V8.00002H9.5001V6.40002Z" fill="#797574"/>
<path d="M7.59995 6.40002H5.69995V8.00002H7.59995V6.40002Z" fill="#201D1E"/>
<path d="M5.70005 6.40002H3.80005V8.00002H5.70005V6.40002Z" fill="#201D1E"/>
<path d="M3.7999 6.40002H1.8999V8.00002H3.7999V6.40002Z" fill="#1B5D9C"/>
<path d="M1.9 6.40002H0V8.00002H1.9V6.40002Z" fill="#201D1E"/>
<path d="M38.0001 4.79999H36.1001V6.39999H38.0001V4.79999Z" fill="#201D1E"/>
<path d="M36.0999 4.79999H34.2V6.39999H36.0999V4.79999Z" fill="white"/>
<path d="M34.2001 4.79999H32.3V6.39999H34.2001V4.79999Z" fill="white"/>
<path d="M32.2999 4.79999H30.3999V6.39999H32.2999V4.79999Z" fill="#201D1E"/>
<path d="M30.4 4.79999H28.5V6.39999H30.4V4.79999Z" fill="#201D1E"/>
<path d="M28.5001 4.79999H26.6001V6.39999H28.5001V4.79999Z" fill="#201D1E"/>
<path d="M26.5999 4.79999H24.7V6.39999H26.5999V4.79999Z" fill="#201D1E"/>
<path d="M24.7001 4.79999H22.8V6.39999H24.7001V4.79999Z" fill="#201D1E"/>
<path d="M22.7999 4.79999H20.8999V6.39999H22.7999V4.79999Z" fill="#201D1E"/>
<path d="M20.9 4.79999H19V6.39999H20.9V4.79999Z" fill="#201D1E"/>
<path d="M19.0001 4.79999H17.1001V6.39999H19.0001V4.79999Z" fill="#201D1E"/>
<path d="M17.1 4.79999H15.2V6.39999H17.1V4.79999Z" fill="#201D1E"/>
<path d="M15.2001 4.79999H13.3V6.39999H15.2001V4.79999Z" fill="#201D1E"/>
<path d="M13.2999 4.79999H11.3999V6.39999H13.2999V4.79999Z" fill="#201D1E"/>
<path d="M11.4 4.79999H9.5V6.39999H11.4V4.79999Z" fill="#201D1E"/>
<path d="M9.5001 4.79999H7.6001V6.39999H9.5001V4.79999Z" fill="#201D1E"/>
<path d="M7.59995 4.79999H5.69995V6.39999H7.59995V4.79999Z" fill="#201D1E"/>
<path d="M5.70005 4.79999H3.80005V6.39999H5.70005V4.79999Z" fill="#1B5D9C"/>
<path d="M3.7999 4.79999H1.8999V6.39999H3.7999V4.79999Z" fill="#2A5586"/>
<path d="M1.9 4.79999H0V6.39999H1.9V4.79999Z" fill="#201D1E"/>
<path d="M38.0001 3.20001H36.1001V4.80001H38.0001V3.20001Z" fill="#201D1E"/>
<path d="M36.0999 3.20001H34.2V4.80001H36.0999V3.20001Z" fill="#201D1E"/>
<path d="M34.2001 3.20001H32.3V4.80001H34.2001V3.20001Z" fill="white"/>
<path d="M32.2999 3.20001H30.3999V4.80001H32.2999V3.20001Z" fill="white"/>
<path d="M30.4 3.20001H28.5V4.80001H30.4V3.20001Z" fill="white"/>
<path d="M28.5001 3.20001H26.6001V4.80001H28.5001V3.20001Z" fill="white"/>
<path d="M26.5999 3.20001H24.7V4.80001H26.5999V3.20001Z" fill="white"/>
<path d="M24.7001 3.20001H22.8V4.80001H24.7001V3.20001Z" fill="white"/>
<path d="M22.7999 3.20001H20.8999V4.80001H22.7999V3.20001Z" fill="white"/>
<path d="M20.9 3.20001H19V4.80001H20.9V3.20001Z" fill="white"/>
<path d="M19.0001 3.20001H17.1001V4.80001H19.0001V3.20001Z" fill="white"/>
<path d="M17.1 3.20001H15.2V4.80001H17.1V3.20001Z" fill="white"/>
<path d="M15.2001 3.20001H13.3V4.80001H15.2001V3.20001Z" fill="white"/>
<path d="M13.2999 3.20001H11.3999V4.80001H13.2999V3.20001Z" fill="white"/>
<path d="M11.4 3.20001H9.5V4.80001H11.4V3.20001Z" fill="white"/>
<path d="M9.5001 3.20001H7.6001V4.80001H9.5001V3.20001Z" fill="white"/>
<path d="M7.59995 3.20001H5.69995V4.80001H7.59995V3.20001Z" fill="white"/>
<path d="M5.70005 3.20001H3.80005V4.80001H5.70005V3.20001Z" fill="#1B5D9C"/>
<path d="M3.7999 3.20001H1.8999V4.80001H3.7999V3.20001Z" fill="#201D1E"/>
<path d="M1.9 3.20001H0V4.80001H1.9V3.20001Z" fill="#201D1E"/>
<path d="M36.0999 1.59998H34.2V3.19998H36.0999V1.59998Z" fill="#201D1E"/>
<path d="M34.2001 1.59998H32.3V3.19998H34.2001V1.59998Z" fill="#201D1E"/>
<path d="M32.2999 1.59998H30.3999V3.19998H32.2999V1.59998Z" fill="#201D1E"/>
<path d="M30.4 1.59998H28.5V3.19998H30.4V1.59998Z" fill="#201D1E"/>
<path d="M28.5001 1.59998H26.6001V3.19998H28.5001V1.59998Z" fill="#201D1E"/>
<path d="M26.5999 1.59998H24.7V3.19998H26.5999V1.59998Z" fill="#201D1E"/>
<path d="M24.7001 1.59998H22.8V3.19998H24.7001V1.59998Z" fill="#201D1E"/>
<path d="M22.7999 1.59998H20.8999V3.19998H22.7999V1.59998Z" fill="#201D1E"/>
<path d="M20.9 1.59998H19V3.19998H20.9V1.59998Z" fill="#201D1E"/>
<path d="M19.0001 1.59998H17.1001V3.19998H19.0001V1.59998Z" fill="#201D1E"/>
<path d="M17.1 1.59998H15.2V3.19998H17.1V1.59998Z" fill="#201D1E"/>
<path d="M15.2001 1.59998H13.3V3.19998H15.2001V1.59998Z" fill="#201D1E"/>
<path d="M13.2999 1.59998H11.3999V3.19998H13.2999V1.59998Z" fill="#201D1E"/>
<path d="M11.4 1.59998H9.5V3.19998H11.4V1.59998Z" fill="#201D1E"/>
<path d="M9.5001 1.59998H7.6001V3.19998H9.5001V1.59998Z" fill="#201D1E"/>
<path d="M7.59995 1.59998H5.69995V3.19998H7.59995V1.59998Z" fill="#201D1E"/>
<path d="M5.70005 1.59998H3.80005V3.19998H5.70005V1.59998Z" fill="#201D1E"/>
<path d="M3.7999 1.59998H1.8999V3.19998H3.7999V1.59998Z" fill="#201D1E"/>
<path d="M34.2001 0H32.3V1.6H34.2001V0Z" fill="#201D1E"/>
<path d="M32.2999 0H30.3999V1.6H32.2999V0Z" fill="#201D1E"/>
<path d="M30.4 0H28.5V1.6H30.4V0Z" fill="#201D1E"/>
<path d="M28.5001 0H26.6001V1.6H28.5001V0Z" fill="#201D1E"/>
<path d="M26.5999 0H24.7V1.6H26.5999V0Z" fill="#201D1E"/>
<path d="M24.7001 0H22.8V1.6H24.7001V0Z" fill="#201D1E"/>
<path d="M22.7999 0H20.8999V1.6H22.7999V0Z" fill="#201D1E"/>
<path d="M20.9 0H19V1.6H20.9V0Z" fill="#201D1E"/>
<path d="M19.0001 0H17.1001V1.6H19.0001V0Z" fill="#201D1E"/>
<path d="M17.1 0H15.2V1.6H17.1V0Z" fill="#201D1E"/>
<path d="M15.2001 0H13.3V1.6H15.2001V0Z" fill="#201D1E"/>
<path d="M13.2999 0H11.3999V1.6H13.2999V0Z" fill="#201D1E"/>
<path d="M11.4 0H9.5V1.6H11.4V0Z" fill="#201D1E"/>
<path d="M9.5001 0H7.6001V1.6H9.5001V0Z" fill="#201D1E"/>
<path d="M7.59995 0H5.69995V1.6H7.59995V0Z" fill="#201D1E"/>
<path d="M5.70005 0H3.80005V1.6H5.70005V0Z" fill="#201D1E"/>
</g>
<defs>
<clipPath id="clip0_1_958">
<rect width="38" height="48" fill="white"/>
</clipPath>
</defs>
</svg>
