<svg id="Layer_1" enable-background="new 0 0 512 512" viewBox="0 0 512 512" xmlns="http://www.w3.org/2000/svg"><g id="_x30_1_ramen_with_chopsticks_00000047747855637276361360000008064146256821707666_"><g><path d="m512 180.71v210.82h-30.12v30.12h-30.12v30.11h-30.11v30.12h-60.24v30.12h-210.82v-30.12h-60.24v-30.12h-30.11v-30.11h-30.12v-30.12h-30.12v-150.59h30.12v-30.12h30.12v-30.11h30.11v30.11h60.24v-30.11h30.12v-30.12h30.11v-60.24l-15.05-30.11 15.05-30.12h30.12v-30.12h90.35v30.12h30.12l15.06 30.12-15.06 30.11v60.24h30.12v30.12h30.12v-30.12h60.23v30.12z"/></g><g><path d="m256 346.35-225.88 15.06v30.12h30.12v30.12h30.11l60.24 30.11 105.41 15.06 105.41-15.06 60.24-30.11h30.11v-30.12h30.12v-30.12z" fill="#dddde1"/><g fill="#ffd944"><path d="m331.29 90.35v60.24h-30.11v30.12h-30.12v-30.12h-30.12v-60.24l45.18-15.05z"/><path d="m421.65 210.82v30.12l-135.53 25.493-135.53-25.493v-30.12h30.12l45.17-15.06 45.18 15.06 15.05 15.06 15.07-15.06 45.17-15.06 45.18 15.06z"/></g><g><path d="m481.88 210.82v30.12l-15.06 15.06-15.06-15.06v-30.12l15.06-15.055z" fill="#8ba42d"/></g><g><path d="m120.47 240.94v30.12h-90.35v-30.12h30.12l15.06-15.06 15.05 15.06z" fill="#ff8495"/></g></g><g><g fill="#9d5015"><path d="m391.53 0h120.47v30.12h-120.47z"/><path d="m512 60.24v30.11h-210.82l-15.06 15.06-15.06-15.06h-120.47v-30.11h30.12v-30.12h30.11v30.12h30.12l45.17-15.06 45.18 15.06h30.12v-30.12h30.12v30.12z"/></g><g><path d="m60.24 210.82h30.11v30.12h-30.11z" fill="#ffc8cf"/></g><path d="m481.88 331.29v30.12h-451.76v-30.12l225.88-15.05z" fill="#ff4a4a"/><g><path d="m30.12 301.18h451.76v30.11h-451.76z" fill="#f5f5f8"/></g><path d="m361.41 240.94v-30.12l-15.06-15.06-15.06 15.06v30.12h-30.11v-30.12h-30.12v30.12h-30.12v-30.12l-15.06-15.06-15.06 15.06v30.12h-30.11l-15.06 15.06 15.06 15.06h30.11l15.06-15.06 15.06 15.06h30.12l15.06-15.06 15.06 15.06h30.11l15.06-15.06 15.06 15.06h30.12l15.06-15.06-15.06-15.06z" fill="#9d5015"/><g fill="#ed8600"><path d="m150.59 240.94h30.12v30.12h-30.12z"/><path d="m210.82 240.94h30.12v30.12h-30.12z"/><path d="m271.06 240.94h30.12v30.12h-30.12z"/><path d="m271.06 30.12h30.12l15.055 15.06-15.055 15.06h-30.12l-15.06-15.06z"/><path d="m271.06 90.35h30.12v60.24h-30.12z"/><path d="m331.29 240.94h30.12v30.12h-30.12z"/><path d="m391.53 240.94h30.12v30.12h-30.12z"/></g><g fill="#fff5d1"><path d="m301.18 30.12h30.11v30.12h-30.11z"/><path d="m240.94 30.12h30.12v30.12h-30.12z"/><path d="m180.71 180.71h90.35v30.11h-90.35z"/><path d="m301.18 180.71h90.35v30.11h-90.35z"/></g><g><path d="m451.76 240.94h30.12v30.12h-30.12z" fill="#5a781e"/></g><g><path d="m421.65 180.71h60.23v30.11h-60.23z" fill="#c2db4b"/></g><g fill="#b8b8bd"><path d="m150.59 451.76h210.82v30.12h-210.82z"/><path d="m361.41 421.65h60.24v30.11h-60.24z"/><path d="m90.35 421.65h60.24v30.11h-60.24z"/></g></g></g><g/><g/><g/><g/><g/><g/><g/><g/><g/><g/><g/><g/><g/><g/><g/></svg>