<svg id="Capa_1" enable-background="new 0 0 512 512" viewBox="0 0 512 512" xmlns="http://www.w3.org/2000/svg"><g><g><path d="m391.53 30.12v-30.12h-90.35v60.24h-150.59v30.11h-30.12v391.53h30.12v30.12h210.82v-30.12h30.12v-391.53h-30.12v-30.11h-30.12v-30.12z"/></g><g><path d="m150.59 90.35h210.82v30.12h-210.82z" fill="#cde8f8"/><path d="m150.59 150.59h210.82v271.06h-210.82z" fill="#ffc905"/><path d="m150.59 451.76h210.82v30.12h-210.82z" fill="#cde8f8"/></g><g><g fill="#b6b8dc"><path d="m331.29 90.35h30.12v30.12h-30.12z"/><path d="m271.06 451.76h90.35v30.12h-90.35z"/></g><path d="m331.29 150.59v90.35h-30.11v60.24h30.11v30.11h-30.11v60.24h-30.12v30.12h90.35v-271.06z" fill="#f5851f"/><g fill="#6e67d5"><path d="m301.18 150.59h30.11v60.23h-30.11z"/><path d="m301.18 90.35h30.11v30.12h-30.11z"/><path d="m271.06 210.82h30.12v180.71h-30.12z"/></g><g fill="#cde8f8"><path d="m210.82 331.29h30.12v30.12h-30.12z"/><path d="m210.82 210.82h30.12v30.12h-30.12z"/><path d="m180.71 271.06h30.11v30.12h-30.11z"/></g></g></g><g/><g/><g/><g/><g/><g/><g/><g/><g/><g/><g/><g/><g/><g/><g/></svg>