<svg width="20" height="20" viewBox="0 0 20 20" fill="none" xmlns="http://www.w3.org/2000/svg">
<path d="M9.99808 1.66638C9.33516 1.66638 8.69939 1.92973 8.23063 2.39848C7.76188 2.86724 7.49854 3.50301 7.49854 4.16593V9.9982C7.49854 10.6611 7.76188 11.2969 8.23063 11.7656C8.69939 12.2344 9.33516 12.4977 9.99808 12.4977C10.661 12.4977 11.2968 12.2344 11.7655 11.7656C12.2343 11.2969 12.4976 10.6611 12.4976 9.9982V4.16593C12.4976 3.50301 12.2343 2.86724 11.7655 2.39848C11.2968 1.92973 10.661 1.66638 9.99808 1.66638Z" stroke="#DAB2FF" stroke-width="1.66636" stroke-linecap="round" stroke-linejoin="round"/>
<path d="M15.8306 8.33179V9.99815C15.8306 11.545 15.2161 13.0284 14.1223 14.1222C13.0286 15.216 11.5451 15.8304 9.99829 15.8304C8.45147 15.8304 6.96801 15.216 5.87425 14.1222C4.78049 13.0284 4.16602 11.545 4.16602 9.99815V8.33179" stroke="#DAB2FF" stroke-width="1.66636" stroke-linecap="round" stroke-linejoin="round"/>
<path d="M9.99829 15.8304V18.33" stroke="#DAB2FF" stroke-width="1.66636" stroke-linecap="round" stroke-linejoin="round"/>
</svg>
